# xmcd CD database file
#
# Track frame offsets:
#	150
#	39387
#	69225
#	84337
#	129225
#	163887
#	210867
#
# Disc length: 2953 seconds
#
# Revision: 0
# Processed by: cddbd v1.5.1PL0 Copyright (c) Steve Scherf et al.
# Submitted via: CDex 1.51
#
DISCID=4d0b8707
DTITLE=三枝成彰 - プロヴァンス組曲
DYEAR=1989
DGENRE=New Age
TTITLE0=詩城の旅びと
TTITLE1=レ・ボー
TTITLE2=ミストラル
TTITLE3=水道橋の恋人たち
TTITLE4=アルルの闘牛場
TTITLE5=イートルダム・ド・ラ・ギャルド
TTITLE6=詩城の旅びと(Revised Version)
EXTD=YEAR: 1989
EXTT0=
EXTT1=
EXTT2=
EXTT3=
EXTT4=
EXTT5=
EXTT6=
PLAYORDER=
